# xmcd
#
# Track frame offsets:
#	183
#	17750
#	29933
#	44603
#	59785
#	73538
#	87133
#	100615
#	113885
#	126393
#	142963
#	157290
#	172528
#	188053
#	201983
#	217618
#	233063
#	245863
#	259238
#	270758
#	284853
#
# Disc length: 3964 seconds
#
# Revision: 0
# Processed by: cddbd v1.4PL0 Copyright (c) Steve Scherf et al.
# Submitted via: dBpowerAMP V4.0
#
DISCID=3d0f7a15
DTITLE=Le Grand Jojo - Le Super Grand Jojo
DYEAR=1900
DGENRE=Chanson
TTITLE0=La (New) Beat
TTITLE1=Dans Notre Bateau
TTITLE2=A la Queuleuleu
TTITLE3=Viens Boire un P'tit Coup A La Maison
TTITLE4=Zaza Zouzou (Le Chef Est Fou)
TTITLE5=E Viva Mexico
TTITLE6=Ookee Pookee
TTITLE7=Vive Les Saints
TTITLE8=Victor Le Footballiste
TTITLE9=Square Dance
TTITLE10=Le French Can Can
TTITLE11=On A Soif
TTITLE12=Le Tango Du Congo
TTITLE13=Ali Baba
TTITLE14=Jules Cesar (Polonaese Blankenese)
TTITLE15=Sergent Fagada
TTITLE16=Angelina
TTITLE17=Valencia (Espana Cani)
TTITLE18=Agence Matrimoniale
TTITLE19=Agadou
TTITLE20=Carmelita
EXTD=
EXTT0=
EXTT1=
EXTT2=
EXTT3=
EXTT4=
EXTT5=
EXTT6=
EXTT7=
EXTT8=
EXTT9=
EXTT10=
EXTT11=
EXTT12=
EXTT13=
EXTT14=
EXTT15=
EXTT16=
EXTT17=
EXTT18=
EXTT19=
EXTT20=
PLAYORDER=
